# xmcd
#
# Track frame offsets:
#	150
#	17712
#	32800
#	46318
#	60530
#	76373
#	94166
#	106325
#	118081
#	133272
#	147693
#	161295
#	172527
#	188248
#	202225
#	217311
#	228778
#	247190
#	258838
#	270501
#	282660
#
# Disc length: 3921
#
# Revision: 2
# Processed by: cddbd v1.5.1PL0 Copyright (c) Steve Scherf et al.
# Submitted via: dBpowerAMP V4.0
# Normalized: r0:TSWAP
#
DISCID=390f4f15
DTITLE=Various Artist - Best Of Country
DYEAR=1900
DGENRE=Country
TTITLE0=T. Graham Brown - Don't Go To Strangers
TTITLE1=Lee Greenwood - Dixie Road
TTITLE2=Mel McDaniel - Baby's Got Her Blue Jeans On
TTITLE3=Lacy J. Dalton - 16th Avenue
TTITLE4=Johnny Lee - Looking For Love
TTITLE5=Judy Rodman - Until I Met You
TTITLE6=Mark Gray - Diamond In the Dust
TTITLE7=Margo Smith - It Only Hurts For A Little While
TTITLE8=Charlie Rich /Janie Fricke - On My Knees
TTITLE9=Johnny Paycheck - Friend, Lover Wife
TTITLE10=Dickey Lee - 9,999,999 Tears
TTITLE11=John Wesley Ryles - Once In A Lifetime Thing
TTITLE12=Lacy J. Dalton - Takin' It Easy
TTITLE13=Lee Greenwood - I.O.U.
TTITLE14=T. Graham Brown - I Tell It Like It Used To Be
TTITLE15=Charlie Rich - Rollin' With The Flow
TTITLE16=Joel Sonnier - Tear Stained Letter
TTITLE17=Eddy Raven - I'm Gonna Get You
TTITLE18=Mel McDaniel - Stand Up
TTITLE19=Johnny Paycheck - Take This Job And Shove It
TTITLE20=Freddy Fender - Before The Next Teardrop Falls
EXTD=
EXTT0=
EXTT1=
EXTT2=
EXTT3=
EXTT4=
EXTT5=
EXTT6=
EXTT7=
EXTT8=
EXTT9=
EXTT10=
EXTT11=
EXTT12=
EXTT13=
EXTT14=
EXTT15=
EXTT16=
EXTT17=
EXTT18=
EXTT19=
EXTT20=
PLAYORDER=
